<?xml version="1.0" encoding="UTF-8" standalone="no"?>
<!-- Created with Inkscape (http://www.inkscape.org/) -->

<svg
   xmlns:dc="http://purl.org/dc/elements/1.1/"
   xmlns:cc="http://creativecommons.org/ns#"
   xmlns:rdf="http://www.w3.org/1999/02/22-rdf-syntax-ns#"
   xmlns:svg="http://www.w3.org/2000/svg"
   xmlns="http://www.w3.org/2000/svg"
   xmlns:sodipodi="http://sodipodi.sourceforge.net/DTD/sodipodi-0.dtd"
   xmlns:inkscape="http://www.inkscape.org/namespaces/inkscape"
   width="812"
   height="732"
   viewBox="0 0 214.84166 193.675"
   version="1.1"
   id="svg8"
   sodipodi:docname="logo.svg"
   inkscape:version="0.92.3 (unknown)">
  <defs
     id="defs2" />
  <sodipodi:namedview
     id="base"
     pagecolor="#ffffff"
     bordercolor="#666666"
     borderopacity="1.0"
     inkscape:pageopacity="0.0"
     inkscape:pageshadow="2"
     inkscape:zoom="1"
     inkscape:cx="398.87677"
     inkscape:cy="126.72646"
     inkscape:document-units="px"
     inkscape:current-layer="layer1"
     showgrid="false"
     units="px"
     inkscape:showpageshadow="false"
     borderlayer="true"
     showguides="true"
     inkscape:guide-bbox="true"
     inkscape:window-width="2560"
     inkscape:window-height="1384"
     inkscape:window-x="0"
     inkscape:window-y="32"
     inkscape:window-maximized="1"
     inkscape:pagecheckerboard="true"
     fit-margin-top="0"
     fit-margin-left="0"
     fit-margin-right="0"
     fit-margin-bottom="0">
    <inkscape:grid
       type="xygrid"
       id="grid4485"
       empspacing="5"
       originx="0"
       originy="-71.172945" />
    <sodipodi:guide
       position="677.33333,214.57706"
       orientation="1,0"
       id="guide4487"
       inkscape:locked="false"
       inkscape:label="2560"
       inkscape:color="rgb(0,0,255)" />
    <sodipodi:guide
       position="0,-71.172933"
       orientation="1,0"
       id="guide4489"
       inkscape:locked="false"
       inkscape:label="1000"
       inkscape:color="rgb(0,0,255)" />
    <sodipodi:guide
       position="264.58332,193.41039"
       orientation="1,0"
       id="guide4495"
       inkscape:locked="false"
       inkscape:label="1000"
       inkscape:color="rgb(255,0,133)" />
    <sodipodi:guide
       position="53.710415,193.67497"
       orientation="1,0"
       id="guide49"
       inkscape:locked="false" />
    <sodipodi:guide
       position="0,145.25622"
       orientation="0,1"
       id="guide51"
       inkscape:locked="false" />
    <sodipodi:guide
       position="161.13125,193.41039"
       orientation="1,0"
       id="guide53"
       inkscape:locked="false" />
  </sodipodi:namedview>
  <metadata
     id="metadata5">
    <rdf:RDF>
      <cc:Work
         rdf:about="">
        <dc:format>image/svg+xml</dc:format>
        <dc:type
           rdf:resource="http://purl.org/dc/dcmitype/StillImage" />
        <dc:title></dc:title>
      </cc:Work>
    </rdf:RDF>
  </metadata>
  <g
     inkscape:label="Capa 1"
     inkscape:groupmode="layer"
     id="layer1"
     transform="translate(0,-32.152052)">
    <rect
       id="rect4717"
       width="107.42083"
       height="96.837502"
       x="0"
       y="128.98955"
       style="fill:#b3b3b3;stroke-width:0.26527244" />
    <rect
       style="fill:#b3b3b3;fill-opacity:1;stroke-width:0.26527244"
       y="128.98955"
       x="107.42083"
       height="96.837502"
       width="107.42084"
       id="rect4719" />
    <rect
       style="fill:#b3b3b3;stroke-width:0.26527244"
       y="32.152084"
       x="0"
       height="96.837502"
       width="107.42083"
       id="rect47" />
    <rect
       style="display:inline;opacity:1;fill:none;fill-opacity:1;stroke:none;stroke-width:0.26458335"
       id="rect4281"
       width="106.36252"
       height="35.45417"
       x="0.52916676"
       y="32.416653"
       inkscape:export-filename="/home/uri/nitrux_logotype_2_small.png"
       inkscape:export-xdpi="96"
       inkscape:export-ydpi="96" />
    <path
       style="display:inline;opacity:1;fill:#231f20;fill-opacity:1;stroke:none;stroke-width:0.26458335"
       d="m 0.52916664,39.824983 v 1.322916 3.439584 16.66875 H 1.3229167 v -13.49375 c 0,-0.791386 0.779904,-1.055849 1.3177491,-0.344165 L 12.964584,61.256233 H 13.49375 V 57.0229 40.471971 l 1.5875,1.939934 v 18.844328 h 2.910417 V 42.735399 h 3.175 c 0.439738,0 0.79375,0.35401 0.79375,0.79375 v 17.727084 h 2.910417 V 43.529149 c 0,-0.43974 0.354012,-0.79375 0.79375,-0.79375 h 3.175 v 1.852084 16.66875 h 0.529167 V 50.672899 c 0,-0.439739 0.354012,-0.79375 0.79375,-0.79375 h 2.624645 l 1.079522,1.446941 v 2.257226 c 0,4.160276 3.278587,7.5247 7.403166,7.666199 l 0.0052,0.0067 h 3.704167 L 44.527549,60.65677 c 2.757945,-1.160767 4.684985,-3.883807 4.684985,-7.073472 v -2.910417 -3.175 -2.754353 l 4.365625,5.797062 1.852084,-2.459282 -6.217709,-8.256343 h -3.704167 l 3.175001,4.215763 v 2.663403 h -0.0067 c 0.0032,0.088 0.0067,0.175774 0.0067,0.264584 v 6.614583 c 0,3.017101 -1.852454,5.584225 -4.486032,6.634737 L 37.041701,50.71629 v -0.837159 h 2.9192 c 2.780073,0 5.0183,-2.238226 5.0183,-5.018298 v -0.01757 c 0,-2.780071 -2.238227,-5.018297 -5.0183,-5.018297 H 34.131284 29.368784 29.1042 24.870867 23.54795 12.964617 v 16.496151 z m 62.97083536,0 -7.143751,9.486243 -1.852083,2.459281 -7.14375,9.485726 h 0.529167 l 6.376355,-8.466667 c 0,0 0.502592,-0.66796 1.005623,0 l 6.376355,8.466667 h 3.704167 l -8.368483,-11.1125 c -0.362593,-0.48148 0.07131,-1.058334 0.07131,-1.058334 l 6.974253,-9.260416 z m -26.458334,15.756661 3.814238,5.112349 c -1.440434,-0.135773 -2.753421,-0.69528 -3.814238,-1.553911 z"
       id="rect5020"
       inkscape:connector-curvature="0" />
    <rect
       id="rect45"
       width="107.42084"
       height="96.837502"
       x="107.42083"
       y="32.152081"
       style="fill:#b3b3b3;fill-opacity:1;stroke-width:0.26527244" />
    <rect
       style="display:inline;opacity:1;fill:none;fill-opacity:1;stroke:none;stroke-width:0.5291667;stroke-linecap:round;stroke-linejoin:round;stroke-miterlimit:4;stroke-dasharray:none;stroke-dashoffset:0;stroke-opacity:1"
       id="rect1308"
       width="98.425003"
       height="50.799999"
       x="111.65414"
       y="32.152061" />
    <path
       style="display:inline;opacity:1;fill:#231f20;fill-opacity:1;stroke:none;stroke-width:0.5291667;stroke-linecap:round;stroke-linejoin:round;stroke-miterlimit:4;stroke-dasharray:none;stroke-dashoffset:0;stroke-opacity:1"
       d="m 111.91875,46.704147 v 1.322917 3.439583 16.66874 h 0.79375 v -13.49374 c 0,-0.791385 0.77991,-1.055846 1.31775,-0.344165 l 10.32393,13.837905 h 0.52916 V 63.90206 60.757553 l 5.55626,7.377834 h 3.70416 l -8.36848,-11.112494 c -0.35767,-0.47493 0.0563,-1.037821 0.0677,-1.053162 l 6.97787,-9.265584 h -0.52917 l -7.14375,9.486246 -1.85208,2.45928 -1.18546,1.57406 z m 2.38125,0 8.0698,10.715626 1.85208,-2.459282 -6.21771,-8.256344 z m 24.0771,0 a 10.847914,10.847917 0 0 0 -3.95273,0.75706 l -1.14774,1.485696 a 9.260414,10.31875 0 0 1 5.10047,-1.71359 9.260414,10.31875 0 0 1 5.31131,1.872237 c -0.67518,0.919993 -1.07798,2.053479 -1.07798,3.287139 v 0.529166 c 0,2.885782 2.1782,5.244308 4.98678,5.527828 a 9.260414,10.31875 0 0 1 -3.49901,7.212997 c -0.60081,-0.82835 -0.9586,-1.84572 -0.9586,-2.95176 v -0.26458 h -0.52917 v 0.26458 c 0,1.23112 0.40119,2.36246 1.07384,3.28145 a 9.260414,10.31875 0 0 1 -5.30717,1.878437 9.260414,10.31875 0 0 1 -1.15394,-0.0904 l 0.45062,0.59428 a 10.847914,10.847917 0 0 0 0.70332,0.0253 10.847914,10.847917 0 0 0 5.87406,-1.740977 c 1.003,0.994707 2.38477,1.608167 3.91553,1.608167 h 5.29167 c 3.07817,0 5.55625,-2.478087 5.55625,-5.556247 v -0.52917 c 0,-3.078167 -2.47808,-5.556247 -5.55625,-5.556247 h -4.27984 a 10.847914,10.847917 0 0 0 -4.47984,-7.872386 c 0.90106,-0.858559 2.11938,-1.387512 3.46801,-1.387512 h 5.29167 c 2.78501,0 5.02708,2.242077 5.02708,5.027084 v 0.264583 h 0.52917 v -0.264583 c 0,-3.078168 -2.47808,-5.556251 -5.55625,-5.556251 h -5.29167 c -1.52732,0 -2.90585,0.611207 -3.90829,1.601971 a 10.847914,10.847917 0 0 0 -5.8813,-1.734262 z m 5.71594,2.744536 a 9.260414,10.31875 0 0 1 3.50004,7.17785 c -0.7845,8e-4 -2.66939,0.003 -2.81585,0.006 -1.00503,-0.91797 -1.63763,-2.236174 -1.63763,-3.710888 v -0.529166 c 0,-1.102784 0.35584,-2.116971 0.95344,-2.944006 z m -14.09735,3.743957 -1.93735,2.50734 1.07798,1.420583 a 9.260414,10.31875 0 0 1 0.85937,-3.927923 z m 26.85213,5.278233 c 1.00503,0.91798 1.63762,2.23617 1.63762,3.710877 v 0.52917 c 0,2.785 -2.24207,5.027077 -5.02708,5.027077 h -5.29167 c -1.34704,0 -2.56416,-0.52764 -3.46491,-1.384407 a 10.847914,10.847917 0 0 0 4.47674,-7.875487 h 4.27984 c 0.0874,0 3.21316,-0.003 3.38946,-0.007 z m -33.24089,0.90175 c 0.14179,0.009 0.29911,0.0874 0.45631,0.29611 l 0.29094,0.38654 V 63.2003 l -1.97921,-2.625167 0.68264,-0.9064 c 0,0 0.23739,-0.31584 0.54932,-0.29611 z"
       id="path1110"
       inkscape:connector-curvature="0" />
    <path
       inkscape:connector-curvature="0"
       id="path1089"
       d="m 133.61461,63.37288 -5.82083,-7.67291 4.49792,-5.820833 1.32291,1.852083 z"
       style="display:inline;opacity:1;fill:#229df0;fill-opacity:1;fill-rule:evenodd;stroke:none;stroke-width:0.26458335px;stroke-linecap:butt;stroke-linejoin:miter;stroke-opacity:1" />
    <path
       style="display:inline;opacity:1;fill:#231f20;fill-opacity:1;fill-rule:evenodd;stroke:none;stroke-width:0.13229166px;stroke-linecap:butt;stroke-linejoin:miter;stroke-opacity:1"
       d="m 169.59795,32.152019 v 50.042692 l 1.61565,0.757307 h 0.0778 l 39.05241,-24.407795 v -0.51573 -1.42706 -0.002 l -28.8396,-17.301899 v 1.473814 l 22.1431,13.285496 -32.80422,20.80287 V 32.901652 Z"
       id="path1233"
       inkscape:connector-curvature="0"
       sodipodi:nodetypes="cccccccccccccc" />
    <rect
       style="display:inline;opacity:1;fill:#231f20;fill-opacity:1;stroke:none;stroke-width:0.26458335"
       id="rect5147"
       width="35.454166"
       height="35.454166"
       x="-106.89164"
       y="32.416637"
       transform="scale(-1,1)"
       inkscape:export-filename="/home/uri/nitrux_logomark_2_small.png"
       inkscape:export-xdpi="96"
       inkscape:export-ydpi="96" />
    <path
       style="display:inline;opacity:1;fill:#fafafa;fill-opacity:1;stroke:none;stroke-width:0.26458335"
       d="m 78.052085,39.824983 v 1.322916 3.439584 16.66875 h 0.79375 v -13.49375 c 0,-0.79139 0.779907,-1.055845 1.31775,-0.344165 l 10.323917,13.837915 h 0.529167 V 57.0229 53.878389 l 5.55625,7.377844 h 3.704171 l -8.368487,-11.1125 c -0.357658,-0.47493 0.0563,-1.037826 0.0677,-1.053166 l 6.97787,-9.265584 h -0.529167 l -7.14375,9.486243 -1.852083,2.459281 -1.185458,1.574064 z m 2.38125,0 8.069792,10.715625 1.852084,-2.459282 -6.217709,-8.256343 z m 9.306926,12.668477 c 0.141787,0.009 0.299106,0.08737 0.456303,0.296106 l 0.290938,0.38654 v 3.145028 l -1.979207,-2.625163 0.682646,-0.906405 c 0,0 0.237389,-0.315838 0.54932,-0.296106 z"
       id="rect5159"
       inkscape:connector-curvature="0" />
    <rect
       style="display:inline;opacity:1;fill:#231f20;fill-opacity:1;stroke:none;stroke-width:0.26458332"
       id="rect5147-1"
       width="8.9958391"
       height="8.9958315"
       x="17.991652"
       y="174.23335"
       inkscape:export-filename="C:\Users\DeViL\Desktop\nitrux_logo_156x42.png"
       inkscape:export-xdpi="90"
       inkscape:export-ydpi="90" />
    <path
       style="display:inline;opacity:1;fill:#fafafa;fill-opacity:1;stroke:none;stroke-width:0.26458332"
       d="m 19.579166,176.08545 v 0.26458 0.52917 4.7625 h 0.264584 v -3.43959 c 0,-0.18886 0.176983,-0.25531 0.310058,-0.10645 l 2.600358,3.54604 h 0.264584 v -1.05834 -0.67799 l 1.322916,1.73633 H 25.4 l -2.169894,-2.84841 c -0.04374,-0.0553 -0.04375,-0.14356 0.02119,-0.23461 l 1.884122,-2.47323 h -0.264583 l -1.852083,2.43085 -0.529167,0.69454 -0.259932,0.34106 z m 0.529167,0 2.116667,2.77812 0.529166,-0.69453 -1.5875,-2.08359 z m 2.479952,3.38274 c 0.08987,-0.007 0.165881,0.0655 0.165881,0.18913 v 0.57981 l -0.391707,-0.51211 0.188619,-0.24805 c 0.01242,-0.004 0.02513,-0.008 0.03721,-0.009 z"
       id="rect5159-2"
       inkscape:connector-curvature="0" />
    <path
       style="display:inline;opacity:1;fill:#231f20;fill-opacity:1;stroke:none;stroke-width:0.52916664;stroke-linecap:round;stroke-linejoin:round;stroke-miterlimit:4;stroke-dasharray:none;stroke-dashoffset:0;stroke-opacity:1"
       d="m 0,176.08545 v 0.26458 0.52917 4.7625 h 0.26458333 v -3.96875 L 3.175,181.6417 h 0.2645833 v -1.05834 -4.23333 L 3.96875,176.8792 v 4.7625 h 0.7937499 v -4.7625 h 0.5291667 c 0.1465789,0 0.2645833,0.118 0.2645833,0.26458 v 4.49792 h 0.79375 v -4.49792 c 0,-0.14658 0.1180044,-0.26458 0.2645833,-0.26458 h 0.5291667 v 1.5875 0.52916 2.64584 h 0.2645833 v -2.64584 c 0,-0.14658 0.1180045,-0.26458 0.2645834,-0.26458 h 0.692981 l 0.100769,0.13229 v 0.92604 c 0,1.02605 0.8260286,1.85209 1.8520834,1.85209 0.08514,0 0.168082,-0.008 0.250114,-0.0186 l 0.01447,0.0186 h 1.058334 l -0.256832,-0.33694 c 0.475627,-0.33457 0.785998,-0.88693 0.785998,-1.51515 v -2.3151 l 1.058334,1.38906 0.529166,-0.69453 -1.5875,-2.08359 H 11.1125 l 0.79375,1.04179 v 0.0165 2.64583 c 0,0.54196 -0.269446,1.01813 -0.681612,1.30432 l -1.8004071,-2.36261 h 0.6299361 c 0.732896,0 1.322916,-0.59003 1.322916,-1.32292 0,-0.73289 -0.59002,-1.32291 -1.322916,-1.32291 H 9.2604166 7.4083332 7.1437499 6.3499999 5.5562499 4.7624999 3.96875 3.175 v 4.15168 z m 11.641667,5.55625 h 0.264583 l 1.719791,-2.25723 1.719792,2.25723 h 1.058333 l -2.248958,-2.95176 1.984375,-2.60449 H 15.875 l -1.852084,2.43085 -0.529166,0.69454 z m -2.3812504,-1.73633 1.1187944,1.46864 c -0.02022,7.6e-4 -0.04004,0.003 -0.06046,0.003 -0.4080231,0 -0.7776976,-0.15393 -1.0583334,-0.40514 z"
       id="rect4581"
       inkscape:connector-curvature="0" />
    <path
       style="display:inline;opacity:1;fill:#fafafa;fill-opacity:1;stroke:none;stroke-width:0.26458332"
       d="m 17.991651,159.94587 v 8.99584 h 8.995833 v -8.99584 z m 1.5875,1.85208 2.650484,3.46646 0.259932,-0.34107 0.529167,-0.69453 1.852083,-2.43086 h 0.264584 l -1.884122,2.47324 c -0.06494,0.0911 -0.06493,0.17929 -0.02119,0.23461 l 2.169895,2.8484 h -1.058333 l -1.322917,-1.73633 v 0.678 1.05833 h -0.264583 l -2.600357,-3.54603 c -0.133078,-0.14886 -0.31006,-0.0824 -0.31006,0.10645 v 3.43958 h -0.264583 v -4.7625 -0.52917 z m 0.529166,0 h 1.058334 l 1.5875,2.0836 -0.529167,0.69453 z m 2.479953,3.38274 c -0.01206,9e-4 -0.02479,0.005 -0.03721,0.009 l -0.188619,0.24805 0.391708,0.51211 v -0.57981 c 0,-0.12365 -0.07601,-0.19574 -0.165881,-0.18913 z"
       id="rect4765"
       inkscape:export-filename="C:\Users\DeViL\Desktop\nitrux_logo_300x92_transparent.png"
       inkscape:export-xdpi="180"
       inkscape:export-ydpi="180"
       inkscape:connector-curvature="0" />
    <path
       style="display:inline;opacity:1;fill:#fafafa;fill-opacity:1;stroke:none;stroke-width:0.52916664;stroke-linecap:round;stroke-linejoin:round;stroke-miterlimit:4;stroke-dasharray:none;stroke-dashoffset:0;stroke-opacity:1"
       d="m 0,161.79794 v 0.26458 0.52917 4.7625 h 0.26458333 v -3.96875 L 3.175,167.35419 h 0.2645833 v -1.05833 -4.23334 l 0.5291667,0.52917 v 4.7625 h 0.7937499 v -4.7625 h 0.5291667 c 0.1465789,0 0.2645833,0.118 0.2645833,0.26458 v 4.49792 h 0.79375 v -4.49792 c 0,-0.14658 0.1180044,-0.26458 0.2645833,-0.26458 h 0.5291667 v 1.5875 0.52917 2.64583 h 0.2645833 v -2.64583 c 0,-0.14658 0.1180045,-0.26459 0.2645834,-0.26459 h 0.692981 l 0.100769,0.13229 v 0.92605 c 0,1.02605 0.8260286,1.85208 1.8520834,1.85208 0.08514,0 0.168082,-0.008 0.250114,-0.0186 l 0.01447,0.0186 h 1.058334 l -0.256832,-0.33693 c 0.475627,-0.33457 0.785998,-0.88694 0.785998,-1.51515 V 163.187 l 1.058334,1.38906 0.529166,-0.69453 -1.5875,-2.08359 H 11.1125 l 0.79375,1.04179 v 0.0165 2.64584 c 0,0.54196 -0.269446,1.01813 -0.681612,1.30431 l -1.8004071,-2.36261 h 0.6299361 c 0.732896,0 1.322916,-0.59002 1.322916,-1.32292 0,-0.73289 -0.59002,-1.32291 -1.322916,-1.32291 H 9.2604166 7.4083332 7.1437499 6.3499999 5.5562499 4.7624999 3.96875 3.175 v 4.15168 z m 11.641667,5.55625 h 0.264583 l 1.719791,-2.25723 1.719792,2.25723 h 1.058333 l -2.248958,-2.95176 1.984375,-2.60449 H 15.875 l -1.852084,2.43086 -0.529166,0.69453 z m -2.3812504,-1.73633 1.1187944,1.46864 c -0.02022,7.6e-4 -0.04004,0.003 -0.06046,0.003 -0.4080231,0 -0.7776976,-0.15393 -1.0583334,-0.40514 z"
       id="rect4785"
       inkscape:connector-curvature="0" />
    <path
       inkscape:connector-curvature="0"
       style="display:inline;opacity:1;fill:#fafafa;fill-opacity:1;fill-rule:evenodd;stroke:none;stroke-width:0.26458332px;stroke-linecap:butt;stroke-linejoin:miter;stroke-opacity:1"
       d="m 120.65,159.94586 v 0.52917 7.1267 0.017 1.05833 l 0.52917,0.26458 6.87916,-4.23333 v -0.26458 l -1.13326,-0.68782 -4.1584,-2.52489 v 0.51418 l 3.75946,2.25516 -5.61155,3.43906 v -6.80578 -0.15865 -0.36845 z m -13.22917,1.85209 v 0.26458 0.52917 4.7625 h 0.26459 v -3.43959 c 0,-0.18885 0.17698,-0.25531 0.31006,-0.10645 l 2.60035,3.54604 h 0.26459 v -1.05834 -0.67799 l 1.32291,1.73633 h 1.05834 l -2.1699,-2.84841 c -0.0437,-0.0553 -0.0438,-0.14355 0.0212,-0.23461 l 1.88412,-2.47323 h -0.26458 l -1.85209,2.43085 -0.52916,0.69454 -0.25994,0.34106 z m 0.52917,0 2.11667,2.77812 0.52916,-0.69453 -1.5875,-2.08359 z m 6.08542,0 a 2.778125,2.778125 0 0 0 -0.18449,0.009 l -0.25476,0.30645 a 2.2489528,2.5135417 0 0 1 0.43925,-0.0512 2.2489528,2.5135417 0 0 1 0.71882,0.13436 c -0.27951,0.26486 -0.45424,0.63902 -0.45424,1.05626 0,0.80619 0.64902,1.45521 1.45521,1.45521 h 0.10542 0.41754 a 2.2489528,2.5135417 0 0 1 -1.26504,2.12907 c -0.2432,-0.19263 -0.41071,-0.47781 -0.44855,-0.80615 H 114.3 c 0.0343,0.36433 0.19815,0.68927 0.44493,0.92656 a 2.2489528,2.5135417 0 0 1 -0.70951,0.13177 2.2489528,2.5135417 0 0 1 -0.11938,-0.007 l 0.2279,0.2656 a 2.778125,2.778125 0 0 0 0.88263,-0.18345 c 0.20658,0.11788 0.44379,0.18913 0.70177,0.18913 h 1.32291 c 0.80619,0 1.45521,-0.64902 1.45521,-1.45521 0,-0.80618 -0.64902,-1.4552 -1.45521,-1.4552 h -0.10542 -0.13901 a 2.778125,2.778125 0 0 0 -1.44952,-2.30839 c 0.12495,-0.0443 0.2574,-0.0729 0.39791,-0.0729 h 1.32291 c 0.61259,0 1.09534,0.46468 1.16376,1.05833 h 0.26458 c -0.0697,-0.74034 -0.66916,-1.32291 -1.42834,-1.32291 h -1.32291 c -0.26082,0 -0.50446,0.0689 -0.71572,0.1881 a 2.778125,2.778125 0 0 0 -1.00407,-0.1881 z m 0.98598,0.52244 a 2.2489528,2.5135417 0 0 1 1.25884,2.12339 h -0.41961 -0.10542 c -0.65961,0 -1.19063,-0.53102 -1.19063,-1.19063 0,-0.38083 0.18024,-0.71511 0.45682,-0.93276 z m -2.04432,0.53589 -1.32291,1.5875 1.5875,1.85208 v -3.175 z m 3.83078,1.85208 h 0.13797 0.10542 c 0.65961,0 1.19063,0.53102 1.19063,1.19063 0,0.6596 -0.53102,1.19062 -1.19063,1.19062 h -1.32291 c -0.13708,0 -0.26617,-0.026 -0.38706,-0.0687 a 2.778125,2.778125 0 0 0 1.46658,-2.31252 z m -6.37791,0.47233 c 0.0899,-0.007 0.16588,0.0655 0.16588,0.18913 v 0.57981 l -0.3917,-0.51211 0.18861,-0.24805 c 0.0124,-0.004 0.0251,-0.008 0.0372,-0.009 z"
       id="path1474" />
    <path
       inkscape:connector-curvature="0"
       id="path4820"
       d="m 120.65001,175.82089 v 0.52916 7.1267 0.0171 1.05833 l 0.52916,0.26459 6.87917,-4.23334 v -0.26458 l -1.13326,-0.68781 -4.15841,-2.52493 v 0.51418 l 3.75946,2.25516 -5.61154,3.43907 v -6.80579 -0.15864 -0.36846 z"
       style="display:inline;opacity:1;fill:#231f20;fill-opacity:1;fill-rule:evenodd;stroke:none;stroke-width:0.26458332px;stroke-linecap:butt;stroke-linejoin:miter;stroke-opacity:1" />
    <path
       inkscape:connector-curvature="0"
       style="display:inline;opacity:1;fill:#231f20;fill-opacity:1;stroke:none;stroke-width:0.26458332"
       d="m 107.42083,177.67296 v 0.26458 0.52916 4.76251 h 0.26459 v -3.43959 c 0,-0.18885 0.17698,-0.25531 0.31006,-0.10645 l 2.60035,3.54604 h 0.26459 v -1.05834 -0.67799 l 1.32291,1.73633 h 1.05834 l -2.1699,-2.84841 c -0.0437,-0.0553 -0.0438,-0.14355 0.0212,-0.23461 l 1.88412,-2.47323 h -0.26458 l -1.85209,2.43085 -0.52916,0.69454 -0.25994,0.34106 z m 0.52917,0 2.11667,2.77812 0.52916,-0.69453 -1.5875,-2.08359 z m 6.08542,0 a 2.778125,2.778125 0 0 0 -0.18449,0.009 l -0.25476,0.30645 a 2.2489528,2.5135417 0 0 1 0.43925,-0.0512 2.2489528,2.5135417 0 0 1 0.71882,0.13435 c -0.27951,0.26486 -0.45424,0.63902 -0.45424,1.05626 0,0.8062 0.64902,1.45522 1.45521,1.45522 h 0.10542 0.41754 a 2.2489528,2.5135417 0 0 1 -1.26504,2.12907 c -0.2432,-0.19263 -0.41071,-0.47781 -0.44855,-0.80615 H 114.3 c 0.0343,0.36433 0.19815,0.68927 0.44493,0.92656 a 2.2489528,2.5135417 0 0 1 -0.70951,0.13177 2.2489528,2.5135417 0 0 1 -0.11938,-0.007 l 0.2279,0.2656 a 2.778125,2.778125 0 0 0 0.88263,-0.18345 c 0.20658,0.11788 0.44379,0.18913 0.70177,0.18913 h 1.32291 c 0.80619,0 1.45521,-0.64902 1.45521,-1.45521 0,-0.80618 -0.64902,-1.4552 -1.45521,-1.4552 h -0.10542 -0.13901 a 2.778125,2.778125 0 0 0 -1.44952,-2.30839 c 0.12495,-0.0443 0.2574,-0.0729 0.39791,-0.0729 h 1.32291 c 0.61259,0 1.09534,0.46467 1.16376,1.05832 h 0.26458 c -0.0697,-0.74034 -0.66916,-1.3229 -1.42834,-1.3229 h -1.32291 c -0.26082,0 -0.50446,0.0689 -0.71572,0.1881 a 2.778125,2.778125 0 0 0 -1.00407,-0.1881 z m 0.98598,0.52243 a 2.2489528,2.5135417 0 0 1 1.25884,2.1234 h -0.41961 -0.10542 c -0.65961,0 -1.19063,-0.53102 -1.19063,-1.19064 0,-0.38083 0.18024,-0.71511 0.45682,-0.93276 z m -3.21479,1.94046 -0.15244,0.18294 0.1328,0.15503 a 2.2489528,2.5135417 0 0 1 -5.3e-4,-0.0227 2.2489528,2.5135417 0 0 1 0.0202,-0.31523 z m 5.00125,0.44752 h 0.13797 0.10542 c 0.65961,0 1.19063,0.53102 1.19063,1.19063 0,0.6596 -0.53102,1.19062 -1.19063,1.19062 h -1.32291 c -0.13708,0 -0.26617,-0.026 -0.38706,-0.0687 a 2.778125,2.778125 0 0 0 1.46658,-2.31252 z m -6.37791,0.47233 c 0.0899,-0.007 0.16588,0.0655 0.16588,0.18913 v 0.57981 l -0.3917,-0.51211 0.18861,-0.24805 c 0.0124,-0.004 0.0251,-0.008 0.0372,-0.009 z"
       id="path4822" />
    <path
       inkscape:connector-curvature="0"
       id="path4844"
       d="m 113.24167,182.17091 -1.5875,-1.85209 1.32292,-1.58751 0.26458,0.26459 z"
       style="display:inline;opacity:1;fill:#229df0;fill-opacity:1;fill-rule:evenodd;stroke:none;stroke-width:0.26458332px;stroke-linecap:butt;stroke-linejoin:miter;stroke-opacity:1" />
    <rect
       style="display:inline;opacity:1;fill:#231f20;fill-opacity:1;stroke:none;stroke-width:0.26458332"
       id="rect5147-0"
       width="4.2333336"
       height="4.2333336"
       x="-4.1594253"
       y="190.63965"
       transform="scale(-1,1)"
       inkscape:export-filename="C:\Users\DeViL\Desktop\favicon.png"
       inkscape:export-xdpi="90"
       inkscape:export-ydpi="90" />
    <path
       inkscape:connector-curvature="0"
       style="display:inline;opacity:1;fill:#fafafa;fill-opacity:1;fill-rule:evenodd;stroke:none;stroke-width:0.26458332px;stroke-linecap:butt;stroke-linejoin:miter;stroke-opacity:1"
       d="m 0.71985232,191.43336 v 0.79375 1.85208 h 0.264583 v -1.48156 l 1.05833398,1.48156 h 0.264583 v -0.52917 -0.21135 l 0.338481,0.47387 5.3e-4,0.002 0.1788,0.26458 h 0.01138 0.264583 0.290939 c -0.316061,-0.44071 -0.62882,-0.88378 -0.942063,-1.32651 l 0.375172,-0.52555 0.566891,-0.79375 h -0.302308 c -0.383474,0.54151 -0.768297,1.08207 -1.152385,1.62315 z m 0.226859,0 0.56689098,0.79375 0.361736,0.50694 c 0.09348,-0.13193 0.187719,-0.26333 0.281119,-0.39532 -0.213796,-0.30214 -0.428953,-0.60331 -0.642855,-0.90537 z"
       id="path4963"
       inkscape:export-filename="C:\Users\DeViL\Desktop\favicon.png"
       inkscape:export-xdpi="90"
       inkscape:export-ydpi="90" />
    <rect
       inkscape:export-ydpi="90"
       inkscape:export-xdpi="90"
       inkscape:export-filename="C:\Users\Uri Herrera\Downloads\favicon.png"
       transform="scale(-1,1)"
       y="190.63756"
       x="-111.65411"
       height="4.2333336"
       width="4.2333336"
       id="rect4791"
       style="display:inline;opacity:1;fill:none;fill-opacity:1;stroke:none;stroke-width:0.26458332" />
    <path
       inkscape:connector-curvature="0"
       style="display:inline;opacity:1;fill:#231f20;fill-opacity:1;stroke:none;stroke-width:0.26458332px;stroke-linecap:butt;stroke-linejoin:miter;stroke-opacity:1"
       d="m 108.21458,191.16671 v 2.64583 0.26458 l 0.26459,0.26459 2.38125,-1.5875 -1.32292,-0.79375 h -0.26458 l 0.97203,0.58291 -1.76578,1.10381 v -2.21589 z"
       id="path4810"
       inkscape:export-filename="C:\Users\Uri Herrera\Downloads\favicon.png"
       inkscape:export-xdpi="90"
       inkscape:export-ydpi="90" />
    <rect
       inkscape:export-ydpi="96"
       inkscape:export-xdpi="96"
       inkscape:export-filename="/home/uri/nitrux_logotype_2_small.png"
       y="95.916641"
       x="0.52916676"
       height="35.45417"
       width="106.36252"
       id="rect192"
       style="display:inline;opacity:1;fill:none;fill-opacity:1;stroke:none;stroke-width:0.26458335" />
    <path
       inkscape:connector-curvature="0"
       id="path194"
       d="m 0.52916664,103.32499 v 1.32291 3.43959 16.66876 H 1.3229167 v -13.49376 c 0,-0.79139 0.779904,-1.05585 1.3177491,-0.34416 l 10.3239182,13.83792 h 0.529166 v -4.23334 -16.55094 l 1.5875,1.93994 v 18.84434 h 2.910417 v -18.52084 h 3.175 c 0.439738,0 0.79375,0.35401 0.79375,0.79375 v 17.72709 h 2.910417 v -17.72709 c 0,-0.43974 0.354012,-0.79375 0.79375,-0.79375 h 3.175 v 1.85208 16.66876 h 0.529167 v -10.58334 c 0,-0.43974 0.354012,-0.79375 0.79375,-0.79375 h 2.624645 l 1.079522,1.44694 v 2.25723 c 0,4.16028 3.278587,7.5247 7.403166,7.6662 l 0.0052,0.007 h 3.704167 l -0.451652,-0.59944 c 2.757945,-1.16077 4.684985,-3.88381 4.684985,-7.07348 v -2.91042 -3.175 -2.75436 l 4.365625,5.79707 1.852084,-2.45928 -6.217709,-8.25635 h -3.704167 l 3.175001,4.21576 v 2.66341 h -0.0067 c 0.0032,0.088 0.0067,0.17577 0.0067,0.26458 v 6.61459 c 0,3.0171 -1.852454,5.58423 -4.486032,6.63474 l -7.155635,-9.50175 v -0.83716 h 2.9192 c 2.780073,0 5.0183,-2.23823 5.0183,-5.0183 v -0.0176 c 0,-2.78007 -2.238227,-5.0183 -5.0183,-5.0183 H 34.131284 29.368784 29.1042 24.870867 23.54795 12.964617 v 16.49616 z m 62.97083536,0 -7.143751,9.48625 -1.852083,2.45928 -7.14375,9.48573 h 0.529167 l 6.376355,-8.46667 c 0,0 0.502592,-0.66796 1.005623,0 l 6.376355,8.46667 h 3.704167 l -8.368483,-11.11251 c -0.362593,-0.48148 0.07131,-1.05833 0.07131,-1.05833 l 6.974253,-9.26042 z m -26.458334,15.75667 3.814238,5.11235 c -1.440434,-0.13577 -2.753421,-0.69528 -3.814238,-1.55391 z"
       style="display:inline;opacity:1;fill:#fafafa;fill-opacity:1;stroke:none;stroke-width:0.26458335" />
    <rect
       y="95.652054"
       x="111.65414"
       height="50.799999"
       width="98.425003"
       id="rect196"
       style="display:inline;opacity:1;fill:none;fill-opacity:1;stroke:none;stroke-width:0.5291667;stroke-linecap:round;stroke-linejoin:round;stroke-miterlimit:4;stroke-dasharray:none;stroke-dashoffset:0;stroke-opacity:1" />
    <path
       inkscape:connector-curvature="0"
       id="path198"
       d="m 111.91875,110.20415 v 1.32292 3.43959 16.66875 h 0.79375 v -13.49375 c 0,-0.79139 0.77991,-1.05585 1.31775,-0.34417 l 10.32393,13.83792 h 0.52916 v -4.23333 -3.14451 l 5.55626,7.37784 h 3.70416 l -8.36848,-11.1125 c -0.35767,-0.47493 0.0563,-1.03783 0.0677,-1.05317 l 6.97787,-9.26559 h -0.52917 l -7.14375,9.48626 -1.85208,2.45928 -1.18546,1.57406 z m 2.38125,0 8.0698,10.71564 1.85208,-2.45929 -6.21771,-8.25635 z m 24.0771,0 a 10.847914,10.847917 0 0 0 -3.95273,0.75707 l -1.14774,1.48569 a 9.260414,10.31875 0 0 1 5.10047,-1.71359 9.260414,10.31875 0 0 1 5.31131,1.87224 c -0.67518,0.91999 -1.07798,2.05348 -1.07798,3.28714 v 0.52917 c 0,2.88578 2.1782,5.24431 4.98678,5.52783 a 9.260414,10.31875 0 0 1 -3.49901,7.213 c -0.60081,-0.82835 -0.9586,-1.84572 -0.9586,-2.95176 v -0.26458 h -0.52917 v 0.26458 c 0,1.23112 0.40119,2.36246 1.07384,3.28145 a 9.260414,10.31875 0 0 1 -5.30717,1.87844 9.260414,10.31875 0 0 1 -1.15394,-0.0904 l 0.45062,0.59428 a 10.847914,10.847917 0 0 0 0.70332,0.0253 10.847914,10.847917 0 0 0 5.87406,-1.74098 c 1.003,0.99471 2.38477,1.60817 3.91553,1.60817 h 5.29167 c 3.07817,0 5.55625,-2.47809 5.55625,-5.55625 v -0.52917 c 0,-3.07817 -2.47808,-5.55625 -5.55625,-5.55625 h -4.27984 a 10.847914,10.847917 0 0 0 -4.47984,-7.87239 c 0.90106,-0.85856 2.11938,-1.38752 3.46801,-1.38752 h 5.29167 c 2.78501,0 5.02708,2.24208 5.02708,5.02709 v 0.26458 h 0.52917 v -0.26458 c 0,-3.07817 -2.47808,-5.55626 -5.55625,-5.55626 h -5.29167 c -1.52732,0 -2.90585,0.61121 -3.90829,1.60198 a 10.847914,10.847917 0 0 0 -5.8813,-1.73427 z m 5.71594,2.74454 a 9.260414,10.31875 0 0 1 3.50004,7.17786 c -0.7845,8e-4 -2.66939,0.003 -2.81585,0.006 -1.00503,-0.91797 -1.63763,-2.23618 -1.63763,-3.71089 v -0.52917 c 0,-1.10279 0.35584,-2.11697 0.95344,-2.94401 z m -14.09735,3.74396 -1.93735,2.50734 1.07798,1.42059 a 9.260414,10.31875 0 0 1 0.85937,-3.92793 z m 26.85213,5.27824 c 1.00503,0.91798 1.63762,2.23617 1.63762,3.71088 v 0.52917 c 0,2.785 -2.24207,5.02708 -5.02708,5.02708 h -5.29167 c -1.34704,0 -2.56416,-0.52764 -3.46491,-1.38441 a 10.847914,10.847917 0 0 0 4.47674,-7.87549 h 4.27984 c 0.0874,0 3.21316,-0.003 3.38946,-0.007 z m -33.24089,0.90175 c 0.14179,0.009 0.29911,0.0874 0.45631,0.29611 l 0.29094,0.38654 v 3.14503 l -1.97921,-2.62517 0.68264,-0.9064 c 0,0 0.23739,-0.31584 0.54932,-0.29611 z"
       style="display:inline;opacity:1;fill:#fafafa;fill-opacity:1;stroke:none;stroke-width:0.5291667;stroke-linecap:round;stroke-linejoin:round;stroke-miterlimit:4;stroke-dasharray:none;stroke-dashoffset:0;stroke-opacity:1" />
    <path
       style="display:inline;opacity:1;fill:#229df0;fill-opacity:1;fill-rule:evenodd;stroke:none;stroke-width:0.26458335px;stroke-linecap:butt;stroke-linejoin:miter;stroke-opacity:1"
       d="m 133.61461,126.8729 -5.82083,-7.67292 4.49792,-5.82083 1.32291,1.85208 z"
       id="path200"
       inkscape:connector-curvature="0" />
    <path
       sodipodi:nodetypes="cccccccccccccc"
       inkscape:connector-curvature="0"
       id="path202"
       d="m 169.59795,95.652023 v 50.042717 l 1.61565,0.75731 h 0.0778 l 39.05241,-24.40781 v -0.51573 -1.42706 -0.002 l -28.8396,-17.30191 v 1.47381 l 22.1431,13.28551 -32.80422,20.80288 V 96.401656 Z"
       style="display:inline;opacity:1;fill:#fafafa;fill-opacity:1;fill-rule:evenodd;stroke:none;stroke-width:0.13229166px;stroke-linecap:butt;stroke-linejoin:miter;stroke-opacity:1" />
    <path
       style="display:inline;opacity:1;fill:#fafafa;fill-opacity:1;stroke:none;stroke-width:1.00000012"
       d="M 270,241 V 375 H 404 V 241 Z m 25,28 38.51953,51.09766 L 338,314.14844 345,304.85352 372,269 h 2 l -26.37305,35.01953 c -0.0431,0.058 -1.60763,2.18546 -0.25586,3.98047 L 379,350 H 365 L 344,322.11523 V 334 350 h -2 L 302.98047,297.69922 C 300.94768,295.00937 298,296.00892 298,299 v 51 h -3 v -63 -13 z m 9,0 h 14 l 23.5,31.20508 -7,9.29492 z m 35.17578,47.88086 C 337.99683,316.80629 337.09961,318 337.09961,318 l -2.58008,3.42578 L 342,331.34766 V 319.46094 L 340.90039,318 c -0.59413,-0.78883 -1.18872,-1.08512 -1.72461,-1.11914 z"
       transform="matrix(0.26458333,0,0,0.26458333,0,32.152066)"
       id="rect204"
       inkscape:connector-curvature="0" />
    <path
       style="display:inline;opacity:1;fill:#fafafa;fill-opacity:1;stroke:none;stroke-width:0.99999994"
       d="M -0.27929688 639.00781 L -0.27929688 655.00781 L 15.720703 655.00781 L 15.720703 639.00781 L -0.27929688 639.00781 z M 2.7207031 642.00781 L 7.3222656 648.14258 C 8.7739368 646.09755 10.228384 644.05446 11.677734 642.00781 L 12.820312 642.00781 L 10.677734 645.00781 L 9.2597656 646.99414 C 10.443676 648.66745 11.625751 650.34214 12.820312 652.00781 L 11.720703 652.00781 L 10.720703 652.00781 L 10.677734 652.00781 L 10.001953 651.00781 L 10 651 L 8.7207031 649.20898 L 8.7207031 650.00781 L 8.7207031 652.00781 L 7.7207031 652.00781 L 3.7207031 646.4082 L 3.7207031 652.00781 L 2.7207031 652.00781 L 2.7207031 645.00781 L 2.7207031 642.00781 z M 3.578125 642.00781 L 5.7207031 642.00781 C 6.5291516 643.14946 7.3423427 644.28774 8.1503906 645.42969 C 7.7973827 645.92855 7.4412009 646.4252 7.0878906 646.92383 L 5.7207031 645.00781 L 3.578125 642.00781 z "
       transform="matrix(0.26458333,0,0,0.26458333,0,32.152052)"
       id="rect4721" />
    <rect
       style="display:inline;opacity:1;fill:none;fill-opacity:1;stroke:none;stroke-width:0.26458332"
       id="rect4725"
       width="4.2333336"
       height="4.2333336"
       x="-111.65411"
       y="201.2209"
       transform="scale(-1,1)"
       inkscape:export-filename="C:\Users\Uri Herrera\Downloads\favicon.png"
       inkscape:export-xdpi="90"
       inkscape:export-ydpi="90" />
    <path
       inkscape:export-ydpi="90"
       inkscape:export-xdpi="90"
       inkscape:export-filename="C:\Users\Uri Herrera\Downloads\favicon.png"
       id="path4727"
       d="m 108.21458,201.75005 v 2.64583 0.26458 l 0.26459,0.26459 2.38125,-1.5875 -1.32292,-0.79375 h -0.26458 l 0.97203,0.58291 -1.76578,1.10381 v -2.21589 z"
       style="display:inline;opacity:1;fill:#fafafa;fill-opacity:1;stroke:none;stroke-width:0.26458332px;stroke-linecap:butt;stroke-linejoin:miter;stroke-opacity:1"
       inkscape:connector-curvature="0" />
  </g>
</svg>
